<svg width="260" height="520" viewBox="0 0 260 520" fill="none" xmlns="http://www.w3.org/2000/svg">
  <defs>
    <linearGradient id="phoneBody" x1="0" y1="0" x2="0" y2="1">
      <stop offset="0%" stop-color="#212431"/>
      <stop offset="100%" stop-color="#0B0D14"/>
    </linearGradient>
    <linearGradient id="cardGradient" x1="0" y1="0" x2="1" y2="1">
      <stop offset="0%" stop-color="#4A7FDC"/>
      <stop offset="100%" stop-color="#6D8BFF"/>
    </linearGradient>
    <linearGradient id="chartGradient" x1="0" y1="0" x2="0" y2="1">
      <stop offset="0%" stop-color="#F6F7FB"/>
      <stop offset="100%" stop-color="#CBD5FF"/>
    </linearGradient>
    <filter id="shadow" x="-10%" y="-10%" width="120%" height="140%" color-interpolation-filters="sRGB">
      <feDropShadow dx="0" dy="20" stdDeviation="20" flood-color="#000000" flood-opacity="0.35"/>
    </filter>
  </defs>

  <rect x="15" y="10" width="230" height="500" rx="32" fill="url(#phoneBody)" stroke="rgba(255,255,255,0.08)" stroke-width="2" filter="url(#shadow)"/>
  <rect x="32" y="36" width="196" height="448" rx="24" fill="#0F131E" stroke="rgba(255,255,255,0.08)" stroke-width="2"/>
  <rect x="110" y="22" width="40" height="4" rx="2" fill="rgba(255,255,255,0.35)"/>

  <!-- header pill -->
  <rect x="58" y="58" width="72" height="22" rx="11" fill="rgba(255,255,255,0.08)" stroke="rgba(255,255,255,0.15)"/>
  <text x="94" y="73" font-family="Inter, sans-serif" font-size="10" text-anchor="middle" fill="#FFFFFF" opacity="0.7">ACTIVE</text>

  <text x="130" y="110" font-family="Inter, sans-serif" font-size="20" font-weight="700" text-anchor="middle" fill="#FFFFFF">Loan Mobile</text>
  <text x="130" y="130" font-family="Inter, sans-serif" font-size="10" text-anchor="middle" fill="rgba(255,255,255,0.65)">de consum negarantat</text>

  <!-- metric cards -->
  <g transform="translate(52,150)">
    <rect width="72" height="60" rx="16" fill="rgba(255,255,255,0.04)" stroke="rgba(255,255,255,0.06)"/>
    <text x="36" y="18" font-family="Inter, sans-serif" font-size="9" fill="rgba(255,255,255,0.55)" text-anchor="middle">Principal</text>
    <text x="36" y="40" font-family="Inter, sans-serif" font-size="16" font-weight="700" fill="#FFFFFF" text-anchor="middle">$350k</text>
  </g>
  <g transform="translate(138,150)">
    <rect width="72" height="60" rx="16" fill="rgba(255,255,255,0.04)" stroke="rgba(255,255,255,0.06)"/>
    <text x="36" y="18" font-family="Inter, sans-serif" font-size="9" fill="rgba(255,255,255,0.55)" text-anchor="middle">Remaining</text>
    <text x="36" y="40" font-family="Inter, sans-serif" font-size="16" font-weight="700" fill="#FFFFFF" text-anchor="middle">$186k</text>
  </g>

  <!-- progress bar -->
  <rect x="58" y="228" width="144" height="10" rx="5" fill="rgba(255,255,255,0.08)"/>
  <rect x="58" y="228" width="90" height="10" rx="5" fill="url(#cardGradient)"/>
  <text x="130" y="222" font-family="Inter, sans-serif" font-size="10" text-anchor="middle" fill="rgba(255,255,255,0.65)">Payment Progress · 52%</text>

  <!-- payment list items -->
  <g transform="translate(50,258)">
    <rect width="160" height="52" rx="16" fill="rgba(20,25,40,0.95)" stroke="rgba(255,255,255,0.05)"/>
    <rect x="10" y="10" width="34" height="32" rx="10" fill="rgba(255,255,255,0.05)" stroke="rgba(255,255,255,0.08)"/>
    <text x="27" y="29" font-size="13" font-family="Inter, sans-serif" fill="#FFFFFF" text-anchor="middle">12</text>
    <text x="27" y="42" font-size="7" font-family="Inter, sans-serif" fill="rgba(255,255,255,0.6)" text-anchor="middle">NOV</text>
    <text x="60" y="30" font-size="12" font-weight="600" font-family="Inter, sans-serif" fill="#FFFFFF">Regular</text>
    <text x="60" y="44" font-size="9" font-family="Inter, sans-serif" fill="rgba(255,255,255,0.5)">2025</text>
    <text x="150" y="30" font-size="13" font-weight="700" font-family="Inter, sans-serif" fill="#D6DEFF" text-anchor="end">$6,912</text>
  </g>
  <g transform="translate(50,318)">
    <rect width="160" height="52" rx="16" fill="rgba(20,25,40,0.95)" stroke="rgba(255,255,255,0.05)"/>
    <rect x="10" y="10" width="34" height="32" rx="10" fill="rgba(255,255,255,0.05)" stroke="rgba(255,255,255,0.08)"/>
    <text x="27" y="29" font-size="13" font-family="Inter, sans-serif" fill="#FFFFFF" text-anchor="middle">13</text>
    <text x="27" y="42" font-size="7" font-family="Inter, sans-serif" fill="rgba(255,255,255,0.6)" text-anchor="middle">OCT</text>
    <text x="60" y="30" font-size="12" font-weight="600" font-family="Inter, sans-serif" fill="#FFFFFF">Regular</text>
    <text x="150" y="30" font-size="13" font-weight="700" font-family="Inter, sans-serif" fill="#D6DEFF" text-anchor="end">$6,912</text>
  </g>

  <!-- mini chart -->
  <g transform="translate(60,388)">
    <rect width="140" height="90" rx="18" fill="rgba(255,255,255,0.03)" stroke="rgba(255,255,255,0.04)"/>
    <text x="70" y="22" font-family="Inter, sans-serif" font-size="11" fill="#FFFFFF" text-anchor="middle">Loan Cost Breakdown</text>
    <rect x="24" y="52" width="16" height="26" rx="4" fill="url(#chartGradient)"/>
    <rect x="52" y="34" width="16" height="44" rx="4" fill="url(#chartGradient)" opacity="0.8"/>
    <rect x="80" y="40" width="16" height="38" rx="4" fill="url(#cardGradient)" opacity="0.9"/>
    <rect x="108" y="24" width="16" height="54" rx="4" fill="url(#cardGradient)"/>
  </g>
</svg>
